<svg height="512pt" viewBox="0 -17 512.00133 512" width="512pt" xmlns="http://www.w3.org/2000/svg"><path d="m512 127.183594-.074219-.011719c-.261719-33.699219-20.75-65.84375-62.410156-89.898437-92.558594-53.4375-254.226563-46.734376-361.105469 14.96875-59.898437 34.585937-89.855468 79.105468-88.3359372 120.972656l-.0429688.003906v61.265625h.015625c-.28125 10.644531 1.46875 21.152344 5.234375 31.320313v87.292968c-.015625.945313-.015625 1.890625 0 2.835938v.671875h.015625c.824219 32.480469 20.945313 63.386719 61.160156 86.605469 90.65625 52.339843 249.011719 45.777343 353.695313-14.664063 60.785156-35.09375 90.097656-80.636719 86.253906-122.90625l.34375-.035156v-81.316407c3.757812-10.816406 5.511719-21.671874 5.199219-32.359374l.050781-.007813zm0 0" fill="#bb8fce"/><g fill="#8e44ad"><path d="m20.242188 292.011719v110.074219c6.851562 10.242187 16.070312 19.9375 27.695312 28.828124v-112.980468c-11.234375-8.007813-20.4375-16.71875-27.695312-25.921875zm0 0"/><path d="m75.636719 334.179688v114.011718c8.730469 4.453125 17.992187 8.414063 27.699219 11.878906v-114.511718c-9.679688-3.320313-18.933594-7.117188-27.699219-11.378906zm0 0"/><path d="m131.035156 353.558594v114.777344c8.988282 2.210937 18.242188 4.0625 27.699219 5.550781v-115.011719c-9.441406-1.433594-18.703125-3.183594-27.699219-5.316406zm0 0"/><path d="m186.433594 362.050781v115.128907c9.125.75 18.371094 1.195312 27.699218 1.324218v-115.195312c-9.328124-.109375-18.570312-.542969-27.699218-1.257813zm0 0"/><path d="m242.148438 362.722656v115.25c9.222656-.46875 18.46875-1.226562 27.699218-2.277344v-115.253906c-9.230468 1.046875-18.476562 1.804688-27.699218 2.28125zm0 0"/><path d="m297.546875 356.46875v115.199219c9.316406-1.65625 18.5625-3.617188 27.699219-5.867188v-115.121093c-9.140625 2.214843-18.386719 4.152343-27.699219 5.789062zm0 0"/><path d="m352.949219 342.9375v115.015625c9.429687-3.039063 18.683593-6.410156 27.695312-10.113281v-114.777344c-9.019531 3.625-18.28125 6.894531-27.695312 9.875zm0 0"/><path d="m423.589844 312.308594c-4.957032 2.859375-10.066406 5.5625-15.246094 8.1875v114.515625c4.003906-2.085938 7.945312-4.230469 11.808594-6.460938 5.5625-3.210937 10.855468-6.515625 15.890625-9.890625v-113.980468c-4 2.589843-8.140625 5.136718-12.453125 7.628906zm0 0"/><path d="m463.742188 283.929688v113.007812c11.550781-10.699219 20.78125-21.875 27.699218-33.261719v-110.070312c-7.304687 10.398437-16.542968 20.574219-27.699218 30.324219zm0 0"/></g><path d="m512 127.183594-.074219-.011719c-.261719-33.699219-20.75-65.84375-62.410156-89.898437-92.558594-53.4375-254.226563-46.734376-361.105469 14.96875-59.898437 34.585937-89.855468 79.105468-88.3359372 120.972656l-.0429688.003906v61.265625h.015625c-.921875 34.75 19.582031 68.046875 62.441406 92.789063 92.554688 53.4375 254.226563 46.738281 361.101563-14.96875 59.617187-34.417969 89.578125-78.683594 88.359375-120.375l.050781-.007813zm0 0" fill="#6b3382"/><path d="m423.589844 245.757812c-106.875 61.703126-268.546875 68.40625-361.105469 14.96875-92.554687-53.4375-80.949219-146.78125 25.925781-208.484374 106.875-61.703126 268.546875-68.40625 361.105469-14.96875s80.949219 146.78125-25.925781 208.484374zm0 0" fill="#9b59b6"/><path d="m69.949219 264.8125-43.28125-31.449219v177.332031c9.828125 11.875 23.066406 22.863282 39.789062 32.515626 1.148438.664062 2.316407 1.3125 3.492188 1.957031zm0 0" fill="#f39c12"/><path d="m420.152344 428.550781c8.382812-4.839843 16.144531-9.886719 23.328125-15.089843v-180.09375l-50.007813 27.707031v181.203125c9.207032-4.21875 18.125-8.789063 26.679688-13.726563zm0 0" fill="#ffd800"/><path d="m449.515625 37.273438c-14.671875-8.46875-31.085937-15.421876-48.734375-20.890626l-374.113281 216.613282c9.414062 10.035156 21.339843 19.371094 35.816406 27.730468 2.4375 1.40625 4.933594 2.761719 7.464844 4.085938l386.113281-223.5625c-2.128906-1.347656-4.296875-2.675781-6.546875-3.976562zm0 0" fill="#f9e667"/><path d="m110.585938 40.597656c-7.609376 3.636719-15.019532 7.511719-22.175782 11.644532-9.515625 5.496093-18.261718 11.242187-26.257812 17.1875l331.320312 191.644531c10.421875-4.660157 20.492188-9.761719 30.117188-15.316407 7.050781-4.070312 13.671875-8.28125 19.890625-12.605468zm0 0" fill="#f9e667"/><path d="m480.089844 169.492188-35.582032-23.09375 30.476563-20.359376-163.214844-6.765624c7.410157-2.628907 17.074219-5.742188 28.820313-8.832032 29.179687-7.675781 63.882812-10.277344 67.234375-36.035156 3.351562-25.753906-12.230469-39.75-37.8125-52.09375-25.585938-12.347656-31.988281-26.121094-57.503907-21.339844-25.511718 4.78125-34.71875 57.109375-46.644531 72.574219-3.175781 4.117187-5.886719 7.867187-8.121093 11.351563-3.910157-1.234376-8.074219-1.910157-12.394532-1.910157-21.394531 0-38.957031 16.339844-40.921875 37.21875-5.789062.605469-10.257812 2.203125-10.257812 2.203125s-17.019531 6.941406-46.582031 12.988282c-29.566407 6.046874-64.355469 6.71875-69.132813 32.25-4.773437 25.53125 10.007813 40.367187 34.867187 54.113281 24.859376 13.746093 30.488282 27.855469 56.226563 24.496093 14.910156-1.949218 25.238281-20.128906 33.777344-37.953124l8.648437 69.582031 35.265625-17.59375 40.003907 20.539062-14.917969-119.949219zm0 0" fill="#ffd800"/><path d="m227.589844 150.285156s-18.492188 16.332032-38.71875 26.988282c-20.230469 10.652343-44.375 38.351562-37.273438 51.136718 7.101563 12.785156 33.027344 2.839844 39.0625-9.941406 6.039063-12.785156 18.464844-40.128906 25.566406-47.589844 7.101563-7.457031 11.363282-20.59375 11.363282-20.59375zm0 0" fill="#f39c12"/><path d="m297.898438 111.449219s67.890624-56.304688 82.746093-57.414063c14.855469-1.105468 15.664063 21.351563-2.515625 30.195313-18.175781 8.839843-80.230468 27.21875-80.230468 27.21875zm0 0" fill="#f39c12"/><path d="m286.464844 124.105469c0 22.710937-18.40625 41.121093-41.117188 41.121093-22.710937 0-41.121094-18.410156-41.121094-41.121093 0-22.707031 18.410157-41.117188 41.121094-41.117188 22.710938 0 41.117188 18.410157 41.117188 41.117188zm0 0" fill="#f1c40f"/></svg>