<?xml version="1.0" encoding="UTF-8"?>
<!DOCTYPE svg PUBLIC "-//W3C//DTD SVG 1.1//EN" "http://www.w3.org/Graphics/SVG/1.1/DTD/svg11.dtd">
<!-- Creator: CorelDRAW 2017 -->
<svg xmlns="http://www.w3.org/2000/svg" xml:space="preserve" width="170px" height="55px" version="1.1" style="shape-rendering:geometricPrecision; text-rendering:geometricPrecision; image-rendering:optimizeQuality; fill-rule:evenodd; clip-rule:evenodd"
viewBox="0 0 170 54.93"
 xmlns:xlink="http://www.w3.org/1999/xlink">
 <defs>
  <style type="text/css">
   <![CDATA[
    .fil0 {fill:#243E48}
    .fil1 {fill:#DC243E}
    .fil2 {fill:#243E48;fill-rule:nonzero}
   ]]>
  </style>
 </defs>
 <g id="Слой_x0020_1">
  <metadata id="CorelCorpID_0Corel-Layer"/>
  <g id="_2587213797264">
   <path class="fil0" d="M11.43 10.38c2.83,0 5.18,-2.25 5.18,-5.17 0,-2.96 -2.35,-5.21 -5.18,-5.21 -2.84,0 -5.13,2.25 -5.13,5.21 0,2.92 2.29,5.17 5.13,5.17z"/>
   <path class="fil0" d="M24.78 10.38c2.83,0 5.18,-2.25 5.18,-5.17 0,-2.96 -2.35,-5.21 -5.18,-5.21 -2.84,0 -5.13,2.25 -5.13,5.21 0,2.92 2.29,5.17 5.13,5.17z"/>
   <path class="fil1" d="M36.72 27.71c-2.34,17.83 -23.92,6.98 -32.57,13.29 3.08,2.71 7.03,2.75 12.34,2.8 7.27,0.07 17.09,-0.39 20.32,-0.39 -1.78,8.95 -7.06,11.22 -15.4,11.44 -4.14,0.1 -8.83,0.19 -11.45,-0.24 -8.49,-1.4 -11.08,-11.15 -9.54,-18.38 0,0 0,0 0,0 0.76,-4.36 3.9,-6.97 8.74,-8.16 4.89,-1.21 21.48,-0.36 27.56,-0.36z"/>
   <path class="fil1" d="M36.58 13.23c-2.79,19.19 -28.81,3.5 -35.05,16.5 -2.38,-9.43 0.05,-14.3 7.48,-16.14 4.89,-1.21 21.26,-0.36 27.57,-0.36z"/>
   <path class="fil2" d="M56.88 32.84l11.75 0 0 -3.82 -7.3 0 0 -3.43 5.54 0 0 -3.81 -5.54 0 0 -3.31 6.94 0 0 -3.81 -11.39 0 0 18.18zm6.89 -19.6l3.21 0 0 -3.56 -3.21 0 0 3.56zm-5.31 0l3.2 0 0 -3.56 -3.2 0 0 3.56zm10.63 11.77c0,4.8 2.36,8.13 7.09,8.13 4.15,0 6.76,-2.74 6.76,-6.35 0,-3.51 -2.13,-6 -5.64,-6 -1.14,0 -2.72,0.3 -3.84,1.24l-0.05 0c0.08,-1.88 1.86,-2.59 3.53,-3.15l4.94 -1.58 -1.25 -3.53 -4.24 1.42c-5.12,1.76 -7.3,4.48 -7.3,9.82zm4.37 1.85c0,-1.7 1.17,-2.77 2.54,-2.77 1.38,0 2.55,1.07 2.55,2.77 0,1.68 -1.17,2.7 -2.55,2.7 -1.37,0 -2.54,-1.02 -2.54,-2.7zm10.7 5.98l4.28 0 3.63 -5.75c0.21,-0.35 0.48,-0.76 0.71,-1.29l0.05 0c-0.05,0.5 -0.05,1.01 -0.05,1.32l0 5.72 4.15 0 0 -13.1 -4.27 0 -3.64 5.78c-0.23,0.38 -0.48,0.76 -0.71,1.29l-0.05 0c0.02,-0.33 0.05,-0.84 0.05,-1.29l0 -5.78 -4.15 0 0 13.1zm19.48 -3.49c0.92,-1.75 1.17,-3.66 1.17,-5.64l0 -0.48 2.26 0 0 6.12 -3.43 0zm-5.95 0l0 6.54 4.07 0 0 -3.05 7.68 0 0 3.05 3.91 0 0 -6.54 -1.88 0 0 -9.61 -10.8 0 0 3.16c0,2.64 -0.49,4.98 -1.35,6.45l-1.63 0zm15.71 -3.02c0,4.09 3.31,6.81 7.43,6.81 4.12,0 7.42,-2.72 7.42,-6.81 0,-4.12 -3.3,-6.89 -7.45,-6.89 -4.09,0 -7.4,2.77 -7.4,6.89zm4.45 0c0,-1.98 1.37,-3.23 2.98,-3.23 1.6,0 2.97,1.25 2.97,3.23 0,1.96 -1.37,3.15 -2.97,3.15 -1.61,0 -2.98,-1.19 -2.98,-3.15zm10.81 -0.05c0,3.48 2.51,6.86 7.19,6.86 2.01,0 4.17,-0.68 5.6,-1.9l-1.63 -3.08c-1.07,0.71 -2.31,1.32 -3.61,1.32 -1.4,0 -2.72,-0.74 -3.05,-2.34l8.26 0c0.05,-0.45 0.1,-0.91 0.1,-1.37 0,-3.64 -2.18,-6.33 -6.05,-6.33 -4.22,0 -6.81,3 -6.81,6.84zm4.6 -1.65c0.23,-1.05 0.84,-1.96 2.11,-1.96 1.12,0 1.8,0.89 1.8,1.96l-3.91 0zm3.2 -6.41l3.21 0 0 -3.56 -3.21 0 0 3.56zm-5.31 0l3.2 0 0 -3.56 -3.2 0 0 3.56zm11.01 6.79c0,4.8 2.36,8.13 7.09,8.13 4.15,0 6.77,-2.74 6.77,-6.35 0,-3.51 -2.14,-6 -5.65,-6 -1.14,0 -2.72,0.3 -3.84,1.24l-0.05 0c0.08,-1.88 1.86,-2.59 3.53,-3.15l4.94 -1.58 -1.25 -3.53 -4.24 1.42c-5.11,1.76 -7.3,4.48 -7.3,9.82zm4.37 1.85c0,-1.7 1.17,-2.77 2.54,-2.77 1.38,0 2.55,1.07 2.55,2.77 0,1.68 -1.17,2.7 -2.55,2.7 -1.37,0 -2.54,-1.02 -2.54,-2.7zm10.71 5.98l4.27 0 3.63 -5.75c0.21,-0.35 0.49,-0.76 0.72,-1.29l0.05 0c-0.05,0.5 -0.05,1.01 -0.05,1.32l0 5.72 4.14 0 0 -13.1 -4.27 0 -3.64 5.78c-0.23,0.38 -0.48,0.76 -0.71,1.29l-0.05 0c0.03,-0.33 0.05,-0.84 0.05,-1.29l0 -5.78 -4.14 0 0 13.1z"/>
   <path class="fil2" d="M70.58 48.19l0.54 -0.7c0.31,0.3 0.67,0.54 1.1,0.73 0.42,0.19 0.85,0.28 1.29,0.28 0.55,0 1,-0.14 1.34,-0.43 0.35,-0.29 0.52,-0.67 0.52,-1.14 0,-0.32 -0.08,-0.59 -0.26,-0.83 -0.17,-0.25 -0.38,-0.45 -0.65,-0.61 -0.27,-0.16 -0.56,-0.31 -0.89,-0.46 -0.33,-0.14 -0.66,-0.29 -0.99,-0.45 -0.33,-0.16 -0.62,-0.33 -0.89,-0.52 -0.27,-0.19 -0.48,-0.43 -0.66,-0.73 -0.17,-0.3 -0.25,-0.65 -0.25,-1.03 0,-0.75 0.27,-1.34 0.83,-1.79 0.55,-0.45 1.24,-0.68 2.07,-0.68 0.99,0 1.8,0.3 2.44,0.89l-0.45 0.76c-0.25,-0.23 -0.56,-0.42 -0.93,-0.57 -0.37,-0.14 -0.73,-0.21 -1.1,-0.21 -0.54,0 -1,0.14 -1.37,0.42 -0.37,0.28 -0.56,0.65 -0.56,1.13 0,0.29 0.09,0.56 0.26,0.79 0.17,0.23 0.39,0.42 0.65,0.57 0.27,0.15 0.57,0.29 0.89,0.43 0.33,0.14 0.66,0.29 0.99,0.45 0.33,0.16 0.62,0.33 0.89,0.52 0.27,0.2 0.49,0.45 0.66,0.76 0.17,0.31 0.25,0.66 0.25,1.07 0,0.73 -0.25,1.34 -0.76,1.81 -0.51,0.48 -1.19,0.72 -2.06,0.72 -1.14,0 -2.11,-0.39 -2.9,-1.18z"/>
   <path id="1" class="fil2" d="M79.05 46.81l0 -4.2 0.9 0 0 3.96c0,0.63 0.1,1.11 0.29,1.45 0.18,0.34 0.57,0.51 1.14,0.51 0.73,0 1.32,-0.27 1.77,-0.81 0.45,-0.55 0.67,-1.19 0.67,-1.95l0 -3.16 0.9 0 0 6.6 -0.88 0 0 -1.03 0.05 -0.53 -0.03 0c-0.15,0.41 -0.46,0.8 -0.92,1.17 -0.46,0.37 -1.02,0.55 -1.67,0.55 -0.77,0 -1.34,-0.21 -1.69,-0.63 -0.35,-0.42 -0.53,-1.06 -0.53,-1.93z"/>
   <path id="2" class="fil2" d="M87.44 48.41l0.47 -0.63c0.52,0.54 1.18,0.8 1.99,0.8 0.39,0 0.7,-0.09 0.95,-0.28 0.25,-0.19 0.38,-0.45 0.38,-0.78 0,-0.27 -0.12,-0.5 -0.36,-0.69 -0.24,-0.19 -0.54,-0.34 -0.88,-0.47 -0.35,-0.13 -0.69,-0.27 -1.04,-0.42 -0.34,-0.14 -0.64,-0.36 -0.88,-0.63 -0.24,-0.28 -0.36,-0.62 -0.36,-1.02 0,-0.58 0.22,-1.03 0.64,-1.35 0.43,-0.32 0.97,-0.48 1.61,-0.48 0.84,0 1.52,0.24 2.03,0.72l-0.42 0.67c-0.18,-0.19 -0.43,-0.33 -0.74,-0.44 -0.3,-0.11 -0.61,-0.17 -0.91,-0.17 -0.38,0 -0.7,0.09 -0.95,0.26 -0.25,0.17 -0.38,0.42 -0.38,0.77 0,0.27 0.12,0.5 0.36,0.69 0.24,0.19 0.54,0.35 0.89,0.48 0.35,0.13 0.69,0.26 1.04,0.41 0.35,0.15 0.64,0.36 0.88,0.64 0.24,0.28 0.36,0.61 0.36,1.02 0,0.54 -0.21,0.98 -0.63,1.33 -0.42,0.35 -0.95,0.53 -1.6,0.53 -1.02,0 -1.84,-0.32 -2.45,-0.96z"/>
   <path id="3" class="fil2" d="M94.93 49.21l0 -9.22 0.89 0 0 3.62 -0.03 0.54 0.02 0c0.16,-0.4 0.47,-0.79 0.94,-1.15 0.47,-0.36 1.03,-0.54 1.7,-0.54 0.79,0 1.36,0.21 1.7,0.64 0.34,0.43 0.51,1.07 0.51,1.91l0 4.2 -0.89 0 0 -3.96c0,-0.62 -0.09,-1.1 -0.29,-1.44 -0.19,-0.34 -0.57,-0.51 -1.15,-0.51 -0.7,0 -1.29,0.25 -1.78,0.77 -0.48,0.52 -0.73,1.17 -0.73,1.95l0 3.19 -0.89 0z"/>
   <path id="4" class="fil2" d="M103.86 41.1l0 -1.11 0.97 0 0 1.11 -0.97 0zm0.04 8.11l0 -6.6 0.89 0 0 6.6 -0.89 0z"/>
   <path id="5" class="fil2" d="M111.09 46.67c0,-0.55 0.15,-1.06 0.45,-1.51 0.3,-0.46 0.71,-0.76 1.23,-0.92l0 -0.03c-0.85,-0.35 -1.27,-1.04 -1.27,-2.04 0,-0.71 0.25,-1.28 0.75,-1.7 0.5,-0.43 1.16,-0.64 2,-0.64 0.35,0 0.7,0.05 1.05,0.15l-0.24 0.74c-0.25,-0.06 -0.5,-0.09 -0.77,-0.09 -0.54,0 -0.98,0.14 -1.33,0.43 -0.35,0.28 -0.53,0.67 -0.53,1.16 0,0.18 0.03,0.36 0.07,0.52 0.05,0.17 0.14,0.35 0.27,0.54 0.12,0.18 0.33,0.33 0.61,0.44 0.29,0.11 0.63,0.17 1.03,0.17l1.94 0 0 -1.3 0.91 0 0 1.3 1.26 0 0 0.81 -1.26 0 0 1.35c0,1.08 -0.27,1.91 -0.81,2.47 -0.55,0.57 -1.29,0.85 -2.25,0.85 -0.91,0 -1.65,-0.26 -2.23,-0.77 -0.59,-0.51 -0.88,-1.16 -0.88,-1.93zm0.95 -0.06c0,0.55 0.19,1 0.59,1.36 0.39,0.37 0.92,0.55 1.57,0.55 1.44,0 2.15,-0.83 2.15,-2.5l0 -1.32 -1.94 0c-0.78,0 -1.37,0.17 -1.77,0.51 -0.4,0.34 -0.6,0.81 -0.6,1.4z"/>
   <path id="6" class="fil2" d="M124.81 49.21l0 -9.22 2.79 0c0.74,0 1.3,0.09 1.69,0.26 0.91,0.44 1.37,1.21 1.37,2.31 0,0.62 -0.16,1.16 -0.49,1.63 -0.32,0.46 -0.75,0.77 -1.27,0.92l0 0.02c0.07,0.08 0.15,0.2 0.25,0.37l2.01 3.71 -1.05 0 -2.08 -3.88 -2.32 0 0 3.88 -0.9 0zm0.9 -4.69l2.19 0c0.55,0 1,-0.18 1.33,-0.54 0.33,-0.35 0.5,-0.82 0.5,-1.39 0,-0.37 -0.09,-0.7 -0.26,-0.98 -0.17,-0.28 -0.41,-0.5 -0.71,-0.64 -0.26,-0.11 -0.66,-0.17 -1.21,-0.17l-1.84 0 0 3.72z"/>
   <path id="7" class="fil2" d="M133.13 45.88c0,-0.97 0.34,-1.78 1.01,-2.44 0.67,-0.66 1.49,-0.98 2.47,-0.98 0.97,0 1.79,0.32 2.47,0.98 0.68,0.66 1.02,1.47 1.02,2.44 0,0.99 -0.34,1.82 -1.02,2.49 -0.68,0.66 -1.5,1 -2.47,1 -0.98,0 -1.8,-0.34 -2.47,-1 -0.67,-0.67 -1.01,-1.5 -1.01,-2.49zm0.92 0c0,0.77 0.25,1.41 0.74,1.91 0.49,0.51 1.1,0.77 1.82,0.77 0.71,0 1.32,-0.26 1.82,-0.77 0.5,-0.5 0.75,-1.14 0.75,-1.91 0,-0.74 -0.25,-1.37 -0.75,-1.87 -0.5,-0.5 -1.11,-0.75 -1.82,-0.75 -0.72,0 -1.33,0.25 -1.82,0.75 -0.49,0.5 -0.74,1.13 -0.74,1.87z"/>
   <path id="8" class="fil2" d="M142.94 47.65l0 -7.66 0.89 0 0 7.46c0,0.67 0.25,1 0.74,1 0.09,0 0.16,0 0.21,-0.01l0 0.8c-0.1,0.02 -0.21,0.02 -0.32,0.02 -0.13,0 -0.26,0 -0.37,-0.02 -0.11,-0.02 -0.25,-0.06 -0.39,-0.13 -0.15,-0.06 -0.28,-0.15 -0.38,-0.27 -0.11,-0.11 -0.2,-0.27 -0.27,-0.47 -0.08,-0.21 -0.11,-0.45 -0.11,-0.72z"/>
   <path id="9" class="fil2" d="M147.33 47.65l0 -7.66 0.9 0 0 7.46c0,0.67 0.25,1 0.74,1 0.09,0 0.16,0 0.21,-0.01l0 0.8c-0.1,0.02 -0.21,0.02 -0.32,0.02 -0.14,0 -0.26,0 -0.37,-0.02 -0.11,-0.02 -0.25,-0.06 -0.39,-0.13 -0.15,-0.06 -0.28,-0.15 -0.38,-0.27 -0.11,-0.11 -0.2,-0.27 -0.27,-0.47 -0.08,-0.21 -0.12,-0.45 -0.12,-0.72z"/>
   <path id="10" class="fil2" d="M151.16 48.41l0.47 -0.63c0.52,0.54 1.18,0.8 1.99,0.8 0.39,0 0.7,-0.09 0.95,-0.28 0.25,-0.19 0.38,-0.45 0.38,-0.78 0,-0.27 -0.12,-0.5 -0.36,-0.69 -0.24,-0.19 -0.54,-0.34 -0.88,-0.47 -0.35,-0.13 -0.69,-0.27 -1.04,-0.42 -0.34,-0.14 -0.64,-0.36 -0.88,-0.63 -0.24,-0.28 -0.36,-0.62 -0.36,-1.02 0,-0.58 0.22,-1.03 0.64,-1.35 0.43,-0.32 0.97,-0.48 1.61,-0.48 0.84,0 1.52,0.24 2.03,0.72l-0.42 0.67c-0.18,-0.19 -0.43,-0.33 -0.74,-0.44 -0.3,-0.11 -0.61,-0.17 -0.91,-0.17 -0.38,0 -0.7,0.09 -0.95,0.26 -0.25,0.17 -0.38,0.42 -0.38,0.77 0,0.27 0.12,0.5 0.36,0.69 0.24,0.19 0.54,0.35 0.89,0.48 0.35,0.13 0.69,0.26 1.04,0.41 0.35,0.15 0.64,0.36 0.88,0.64 0.24,0.28 0.36,0.61 0.36,1.02 0,0.54 -0.21,0.98 -0.63,1.33 -0.42,0.35 -0.95,0.53 -1.6,0.53 -1.02,0 -1.84,-0.32 -2.45,-0.96z"/>
  </g>
 </g>
</svg>
