<?xml version="1.0" encoding="UTF-8"?>
<!DOCTYPE svg PUBLIC "-//W3C//DTD SVG 1.1//EN" "http://www.w3.org/Graphics/SVG/1.1/DTD/svg11.dtd">
<!-- Creator: CorelDRAW 2017 -->
<svg xmlns="http://www.w3.org/2000/svg" xml:space="preserve" width="11px" height="11px" version="1.1" style="shape-rendering:geometricPrecision; text-rendering:geometricPrecision; image-rendering:optimizeQuality; fill-rule:evenodd; clip-rule:evenodd"
viewBox="0 0 0.5 0.48"
 xmlns:xlink="http://www.w3.org/1999/xlink">
 <defs>
  <style type="text/css">
   <![CDATA[
    .fil0 {fill:#DC243E}
   ]]>
  </style>
 </defs>
 <g id="Слой_x0020_1">
  <metadata id="CorelCorpID_0Corel-Layer"/>
  <path class="fil0" d="M0 0.18l0 0.01c0,0 0,0.01 0,0.01 0,0 0.01,0.01 0.01,0.01 0.01,0.01 0.02,0.03 0.03,0.04 0.02,0.01 0.04,0.04 0.05,0.05 0.01,0.01 0.01,0.03 0.01,0.04 -0.01,0.04 -0.03,0.11 -0.01,0.13 0.03,0.02 0.11,-0.04 0.15,-0.05 0.01,-0.01 0.02,0 0.03,0.01 0.02,0 0.03,0.01 0.04,0.02 0.01,0 0.03,0.02 0.05,0.02 0,0 0.01,0 0.02,0.01l0.01 0c0.01,-0.01 0.02,-0.01 0.02,-0.03 0.01,-0.04 -0.02,-0.12 -0.01,-0.14 0,-0.01 0.02,-0.02 0.02,-0.03 0.02,-0.01 0.04,-0.04 0.06,-0.05 0,-0.01 0.01,-0.02 0.01,-0.03 0,0 0,0 0,0 0,0 0.01,0 0.01,0l0 -0.01 0 -0.01c-0.01,-0.01 -0.01,-0.01 -0.03,-0.02 -0.03,-0.01 -0.07,-0.01 -0.09,-0.02 -0.02,0 -0.03,0 -0.04,-0.01 -0.02,-0.02 -0.04,-0.08 -0.06,-0.11 0,0 0,-0.01 -0.01,-0.01 -0.01,-0.01 -0.01,-0.01 -0.02,-0.01l-0.01 0c0,0 0,0 -0.01,0 -0.01,0.01 -0.03,0.04 -0.03,0.06 -0.01,0.02 -0.03,0.06 -0.04,0.07 -0.01,0.01 -0.03,0.01 -0.04,0.01 -0.02,0 -0.03,0.01 -0.05,0.01 -0.01,0 -0.03,0 -0.04,0.01 -0.01,0 -0.02,0 -0.03,0.01 0,0.01 0,0.01 0,0.01z"/>
 </g>
</svg>
